<svg width="325" height="73" viewBox="0 0 325 73" fill="none" xmlns="http://www.w3.org/2000/svg">
<path d="M31.79 30.11C22.5 27.87 14.93 26.23 14.93 18.43C14.93 12.39 19.58 9.18003 28.66 9.18003C39.16 9.18003 44.11 13.76 45.32 22.14H56.83C55.73 8.12003 45.03 0.0300293 28.58 0.0300293C13.02 0.0300293 3.34001 6.94003 3.34001 19.03C3.34001 32.26 15.76 35.77 27.07 38.69C40.18 41.91 47.25 43.17 47.25 52.03C47.25 58.36 43.72 63.23 32.11 63.23C18.59 63.23 12.84 56.9 12.03 47.55H0.52002C1.33002 63.23 14.33 72.36 32.4 72.36C50.47 72.36 58.85 63.42 58.85 51.43C58.85 36.72 45.72 33.51 31.8 30.11H31.79Z" fill="#1D1D1D"/>
<path d="M76.9201 57.2801V29.2401H86.8101V21.3601H76.9201V5.39014H67.0301V21.3801H59.5601V29.2601H67.0301V57.0101L67.0101 56.9901C67.0101 68.4801 72.1501 71.5901 80.6401 71.5901C82.7601 71.5901 84.3701 71.4901 86.9001 71.0101V63.3101C85.2001 63.6001 84.3901 63.7001 82.6701 63.7001C78.4401 63.7001 76.9201 62.5401 76.9201 57.2701V57.2801Z" fill="#1D1D1D"/>
<path d="M133.63 59.7301V36.93C133.63 24.09 125.15 19.8 114.55 19.8C98.81 19.8 92.33 27.31 91.84 36.85H101.94C102.46 30.21 105.18 27.5 114.16 27.5C121.73 27.5 123.95 30.51 123.95 34.12C123.95 38.99 118.99 39.97 110.92 41.42C98.1 43.76 89.43 47.08 89.43 58.18H89.41C89.41 66.64 95.99 72.39 106.27 72.39C114.65 72.39 120.5 69.1701 123.84 64.0101H124.05C124.65 69.6701 127.29 71.52 132.22 71.52C133.82 71.52 135.54 71.3301 137.26 70.9401V65.09C136.66 65.19 136.37 65.1901 136.06 65.1901C134.13 65.1901 133.63 63.3401 133.63 59.7301ZM123.92 51.6601C123.92 60.3301 117.37 64.71 108.49 64.71H108.47C102.33 64.71 99.7 62.1801 99.7 57.5101C99.7 52.3501 103.54 49.9001 112.62 48.1601C117.87 47.0801 122.31 46 123.92 44.55V51.6601Z" fill="#1D1D1D"/>
<path d="M164.7 27.7599C174.1 27.7599 177.13 34.1899 177.62 39.3599H187.83C186.63 28.1599 177.85 19.8799 164.62 19.8799C149.37 19.8799 139.38 30.5999 139.38 46.1799L139.4 46.1599C139.4 61.7599 149.38 72.4599 164.73 72.4599C177.94 72.4599 187.13 63.9799 187.84 52.5899H177.63C177.13 58.2499 174.19 64.4799 164.71 64.4799C153.72 64.4799 149.67 55.4999 149.67 46.1599C149.67 36.8199 153.71 27.7599 164.71 27.7599H164.7Z" fill="#1D1D1D"/>
<path d="M236.47 21.3699H225.06L202.56 42.4099V1.3999H192.66V71.0499H202.56V52.5499L210.02 45.6399L226.89 71.0499H238.59L216.68 39.5899L236.47 21.3699Z" fill="#1D1D1D"/>
<path d="M269.39 1.3999L242.55 71.0299H254.25L260.2 54.2699H290.38L296.33 71.0299H308.44L281.39 1.3999H269.38H269.39ZM263.54 45.2299L275.24 11.3399H275.45L287.25 45.2299H263.54Z" fill="#1D1D1D"/>
<path d="M324.83 1.3999H313.73V71.0299H324.83V1.3999Z" fill="#1D1D1D"/>
</svg>
