<svg width="420" height="280" viewBox="0 0 420 280" fill="none" xmlns="http://www.w3.org/2000/svg">
<mask id="mask0_33_13671" style="mask-type:alpha" maskUnits="userSpaceOnUse" x="0" y="0" width="420" height="280">
<path d="M419.5 140C419.5 178.441 396.128 213.303 358.215 238.579C320.305 263.852 267.905 279.5 210 279.5C152.095 279.5 99.6946 263.852 61.7849 238.579C23.8718 213.303 0.5 178.441 0.5 140C0.5 101.559 23.8718 66.6965 61.7849 41.4211C99.6946 16.148 152.095 0.5 210 0.5C267.905 0.5 320.305 16.148 358.215 41.4211C396.128 66.6965 419.5 101.559 419.5 140Z" fill="url(#paint0_radial_33_13671)" stroke="#EBEBEB"/>
</mask>
<g mask="url(#mask0_33_13671)">
<path d="M-73.1646 -75.6328H-97.7876V-50.7736M-73.1646 -75.6328V-50.7736M-73.1646 -75.6328H-48.5415M-73.1646 -50.7736H-97.7876M-73.1646 -50.7736H-48.5415M-73.1646 -50.7736V-25.9142M-97.7876 -50.7736V-25.9142M394.673 -75.6328H419.296M394.673 -75.6328V-50.7736M394.673 -75.6328H370.05M419.296 -75.6328V-50.7736M419.296 -75.6328H443.919M419.296 -50.7736H394.673M419.296 -50.7736H443.919M419.296 -50.7736V-25.9142M394.673 -50.7736H370.05M394.673 -50.7736V-25.9142M-48.5415 -75.6328V-50.7736M-48.5415 -75.6328H-23.9184M-48.5415 -50.7736H-23.9184M-48.5415 -50.7736V-25.9142M443.919 -75.6328V-50.7736M443.919 -75.6328H468.542M443.919 -50.7736H468.542M443.919 -50.7736V-25.9142M-23.9184 -75.6328V-50.7736M-23.9184 -75.6328H0.70461M-23.9184 -50.7736H0.70461M-23.9184 -50.7736V-25.9142M468.542 -75.6328V-50.7736M468.542 -75.6328H493.165M468.542 -50.7736H493.165M468.542 -50.7736V-25.9142M0.70461 -75.6328V-50.7736M0.70461 -75.6328H25.3277M0.70461 -50.7736H25.3277M0.70461 -50.7736V-25.9142M493.165 -75.6328V-50.7736M493.165 -75.6328H517.788V-50.7736M493.165 -50.7736H517.788M493.165 -50.7736V-25.9142M25.3277 -75.6328V-50.7736M25.3277 -75.6328H49.9506M25.3277 -50.7736H49.9506M25.3277 -50.7736V-25.9142M517.788 -50.7736V-25.9142M49.9506 -75.6328V-50.7736M49.9506 -75.6328H74.5736M49.9506 -50.7736H74.5736M49.9506 -50.7736V-25.9142M74.5736 -75.6328V-50.7736M74.5736 -75.6328H99.1967M74.5736 -50.7736H99.1967M74.5736 -50.7736V-25.9142M99.1967 -75.6328V-50.7736M99.1967 -75.6328H123.82M99.1967 -50.7736H123.82M99.1967 -50.7736V-25.9142M123.82 -75.6328V-50.7736M123.82 -75.6328H148.443M123.82 -50.7736H148.443M123.82 -50.7736V-25.9142M148.443 -75.6328V-50.7736M148.443 -75.6328H173.066M148.443 -50.7736H173.066M148.443 -50.7736V-25.9142M173.066 -75.6328V-50.7736M173.066 -75.6328H197.689M173.066 -50.7736H197.689M173.066 -50.7736V-25.9142M197.689 -75.6328V-50.7736M197.689 -75.6328H222.312M197.689 -50.7736H222.312M197.689 -50.7736V-25.9142M222.312 -75.6328V-50.7736M222.312 -75.6328H246.935M222.312 -50.7736H246.935M222.312 -50.7736V-25.9142M296.181 -75.6328H320.804M296.181 -75.6328V-50.7736M296.181 -75.6328H271.558M320.804 -75.6328V-50.7736M320.804 -75.6328H345.427M320.804 -50.7736H296.181M320.804 -50.7736H345.427M320.804 -50.7736V-25.9142M296.181 -50.7736H271.558M296.181 -50.7736V-25.9142M246.935 -75.6328V-50.7736M246.935 -75.6328H271.558M246.935 -50.7736H271.558M246.935 -50.7736V-25.9142M345.427 -75.6328V-50.7736M345.427 -75.6328H370.05M345.427 -50.7736H370.05M345.427 -50.7736V-25.9142M271.558 -75.6328V-50.7736M271.558 -50.7736V-25.9142M370.05 -75.6328V-50.7736M370.05 -50.7736V-25.9142M-97.7876 48.6636H-73.1646M-97.7876 48.6636V73.5228M-97.7876 48.6636V23.804M-73.1646 48.6636V73.5228M-73.1646 48.6636H-48.5415M-73.1646 48.6636V23.804M-73.1646 73.5228H-97.7876M-73.1646 73.5228H-48.5415M-73.1646 73.5228V98.3816M-97.7876 73.5228V98.3816M394.673 48.6636H419.296M394.673 48.6636V73.5228M394.673 48.6636H370.05M394.673 48.6636V23.804M419.296 48.6636V73.5228M419.296 48.6636H443.919M419.296 48.6636V23.804M419.296 73.5228H394.673M419.296 73.5228H443.919M419.296 73.5228V98.3816M394.673 73.5228H370.05M394.673 73.5228V98.3816M-48.5415 48.6636V73.5228M-48.5415 48.6636H-23.9184M-48.5415 48.6636V23.804M-48.5415 73.5228H-23.9184M-48.5415 73.5228V98.3816M443.919 48.6636V73.5228M443.919 48.6636H468.542M443.919 48.6636V23.804M443.919 73.5228H468.542M443.919 73.5228V98.3816M-23.9184 48.6636V73.5228M-23.9184 48.6636H0.70461M-23.9184 48.6636V23.804M-23.9184 73.5228H0.70461M-23.9184 73.5228V98.3816M468.542 48.6636V73.5228M468.542 48.6636H493.165M468.542 48.6636V23.804M468.542 73.5228H493.165M468.542 73.5228V98.3816M0.70461 48.6636V73.5228M0.70461 48.6636H25.3277M0.70461 48.6636V23.804M0.70461 73.5228H25.3277M0.70461 73.5228V98.3816M493.165 48.6636V73.5228M493.165 48.6636H517.788M493.165 48.6636V23.804M493.165 73.5228H517.788M493.165 73.5228V98.3816M25.3277 48.6636V73.5228M25.3277 48.6636H49.9506M25.3277 48.6636V23.804M25.3277 73.5228H49.9506M25.3277 73.5228V98.3816M517.788 48.6636V73.5228M517.788 48.6636V23.804M517.788 73.5228V98.3816M49.9506 48.6636V73.5228M49.9506 48.6636H74.5736M49.9506 48.6636V23.804M49.9506 73.5228H74.5736M49.9506 73.5228V98.3816M74.5736 48.6636V73.5228M74.5736 48.6636H99.1967M74.5736 48.6636V23.804M74.5736 73.5228H99.1967M74.5736 73.5228V98.3816M99.1967 48.6636V73.5228M99.1967 48.6636H123.82M99.1967 48.6636V23.804M99.1967 73.5228H123.82M99.1967 73.5228V98.3816M123.82 48.6636V73.5228M123.82 48.6636H148.443M123.82 48.6636V23.804M123.82 73.5228H148.443M123.82 73.5228V98.3816M148.443 48.6636V73.5228M148.443 48.6636H173.066M148.443 48.6636V23.804M148.443 73.5228H173.066M148.443 73.5228V98.3816M173.066 48.6636V73.5228M173.066 48.6636H197.689M173.066 48.6636V23.804M173.066 73.5228H197.689M173.066 73.5228V98.3816M197.689 48.6636V73.5228M197.689 48.6636H222.312M197.689 48.6636V23.804M197.689 73.5228H222.312M197.689 73.5228V98.3816M222.312 48.6636V73.5228M222.312 48.6636H246.935M222.312 48.6636V23.804M222.312 73.5228H246.935M222.312 73.5228V98.3816M296.181 48.6636H320.804M296.181 48.6636V73.5228M296.181 48.6636H271.558M296.181 48.6636V23.804M320.804 48.6636V73.5228M320.804 48.6636H345.427M320.804 48.6636V23.804M320.804 73.5228H296.181M320.804 73.5228H345.427M320.804 73.5228V98.3816M296.181 73.5228H271.558M296.181 73.5228V98.3816M246.935 48.6636V73.5228M246.935 48.6636H271.558M246.935 48.6636V23.804M246.935 73.5228H271.558M246.935 73.5228V98.3816M345.427 48.6636V73.5228M345.427 48.6636H370.05M345.427 48.6636V23.804M345.427 73.5228H370.05M345.427 73.5228V98.3816M271.558 48.6636V73.5228M271.558 48.6636V23.804M271.558 73.5228V98.3816M370.05 48.6636V73.5228M370.05 48.6636V23.804M370.05 73.5228V98.3816M-73.1646 -25.9142H-97.7876M-73.1646 -25.9142H-48.5415M-73.1646 -25.9142V-1.05538M-97.7876 -25.9142V-1.05538M419.296 -25.9142H394.673M419.296 -25.9142H443.919M419.296 -25.9142V-1.05538M394.673 -25.9142H370.05M394.673 -25.9142V-1.05538M-48.5415 -25.9142H-23.9184M-48.5415 -25.9142V-1.05538M443.919 -25.9142H468.542M443.919 -25.9142V-1.05538M-23.9184 -25.9142H0.70461M-23.9184 -25.9142V-1.05538M468.542 -25.9142H493.165M468.542 -25.9142V-1.05538M0.70461 -25.9142H25.3277M0.70461 -25.9142V-1.05538M493.165 -25.9142H517.788M493.165 -25.9142V-1.05538M25.3277 -25.9142H49.9506M25.3277 -25.9142V-1.05538M517.788 -25.9142V-1.05538M49.9506 -25.9142H74.5736M49.9506 -25.9142V-1.05538M74.5736 -25.9142H99.1967M74.5736 -25.9142V-1.05538M99.1967 -25.9142H123.82M99.1967 -25.9142V-1.05538M123.82 -25.9142H148.443M123.82 -25.9142V-1.05538M148.443 -25.9142H173.066M148.443 -25.9142V-1.05538M173.066 -25.9142H197.689M173.066 -25.9142V-1.05538M197.689 -25.9142H222.312M197.689 -25.9142V-1.05538M222.312 -25.9142H246.935M222.312 -25.9142V-1.05538M320.804 -25.9142H296.181M320.804 -25.9142H345.427M320.804 -25.9142V-1.05538M296.181 -25.9142H271.558M296.181 -25.9142V-1.05538M246.935 -25.9142H271.558M246.935 -25.9142V-1.05538M345.427 -25.9142H370.05M345.427 -25.9142V-1.05538M271.558 -25.9142V-1.05538M370.05 -25.9142V-1.05538M-73.1646 98.3816H-97.7876M-73.1646 98.3816H-48.5415M-73.1646 98.3816V123.241M-97.7876 98.3816V123.241M419.296 98.3816H394.673M419.296 98.3816H443.919M419.296 98.3816V123.241M394.673 98.3816H370.05M394.673 98.3816V123.241M-48.5415 98.3816H-23.9184M-48.5415 98.3816V123.241M443.919 98.3816H468.542M443.919 98.3816V123.241M-23.9184 98.3816H0.70461M-23.9184 98.3816V123.241M468.542 98.3816H493.165M468.542 98.3816V123.241M0.70461 98.3816H25.3277M0.70461 98.3816V123.241M493.165 98.3816H517.788M493.165 98.3816V123.241M25.3277 98.3816H49.9506M25.3277 98.3816V123.241M517.788 98.3816V123.241M49.9506 98.3816H74.5736M49.9506 98.3816V123.241M74.5736 98.3816H99.1967M74.5736 98.3816V123.241M99.1967 98.3816H123.82M99.1967 98.3816V123.241M123.82 98.3816H148.443M123.82 98.3816V123.241M148.443 98.3816H173.066M148.443 98.3816V123.241M173.066 98.3816H197.689M173.066 98.3816V123.241M197.689 98.3816H222.312M197.689 98.3816V123.241M222.312 98.3816H246.935M222.312 98.3816V123.241M320.804 98.3816H296.181M320.804 98.3816H345.427M320.804 98.3816V123.241M296.181 98.3816H271.558M296.181 98.3816V123.241M246.935 98.3816H271.558M246.935 98.3816V123.241M345.427 98.3816H370.05M345.427 98.3816V123.241M271.558 98.3816V123.241M370.05 98.3816V123.241M-73.1646 -1.05538H-97.7876M-73.1646 -1.05538H-48.5415M-73.1646 -1.05538V23.804M-97.7876 -1.05538V23.804M419.296 -1.05538H394.673M419.296 -1.05538H443.919M419.296 -1.05538V23.804M394.673 -1.05538H370.05M394.673 -1.05538V23.804M-48.5415 -1.05538H-23.9184M-48.5415 -1.05538V23.804M443.919 -1.05538H468.542M443.919 -1.05538V23.804M-23.9184 -1.05538H0.70461M-23.9184 -1.05538V23.804M468.542 -1.05538H493.165M468.542 -1.05538V23.804M0.70461 -1.05538H25.3277M0.70461 -1.05538V23.804M493.165 -1.05538H517.788M493.165 -1.05538V23.804M25.3277 -1.05538H49.9506M25.3277 -1.05538V23.804M517.788 -1.05538V23.804M49.9506 -1.05538H74.5736M49.9506 -1.05538V23.804M74.5736 -1.05538H99.1967M74.5736 -1.05538V23.804M99.1967 -1.05538H123.82M99.1967 -1.05538V23.804M123.82 -1.05538H148.443M123.82 -1.05538V23.804M148.443 -1.05538H173.066M148.443 -1.05538V23.804M173.066 -1.05538H197.689M173.066 -1.05538V23.804M197.689 -1.05538H222.312M197.689 -1.05538V23.804M222.312 -1.05538H246.935M222.312 -1.05538V23.804M320.804 -1.05538H296.181M320.804 -1.05538H345.427M320.804 -1.05538V23.804M296.181 -1.05538H271.558M296.181 -1.05538V23.804M246.935 -1.05538H271.558M246.935 -1.05538V23.804M345.427 -1.05538H370.05M345.427 -1.05538V23.804M271.558 -1.05538V23.804M370.05 -1.05538V23.804M-73.1646 123.241H-97.7876M-73.1646 123.241H-48.5415M-73.1646 123.241V148.1M-97.7876 123.241V148.1M419.296 123.241H394.673M419.296 123.241H443.919M419.296 123.241V148.1M394.673 123.241H370.05M394.673 123.241V148.1M-97.7876 172.959H-73.1646M-97.7876 172.959V197.819M-97.7876 172.959V148.1M-73.1646 172.959V197.819M-73.1646 172.959H-48.5415M-73.1646 172.959V148.1M-73.1646 197.819H-97.7876M-73.1646 197.819H-48.5415M-73.1646 197.819V222.678M-97.7876 197.819V222.678M-97.7876 297.256H-73.1646M-97.7876 297.256V322.115M-97.7876 297.256V272.396M-73.1646 297.256V322.115M-73.1646 297.256H-48.5415M-73.1646 297.256V272.396M-73.1646 322.115H-97.7876M-73.1646 322.115H-48.5415M-73.1646 322.115V346.974M-97.7876 322.115V346.974M394.673 172.959H419.296M394.673 172.959V197.819M394.673 172.959H370.05M394.673 172.959V148.1M419.296 172.959V197.819M419.296 172.959H443.919M419.296 172.959V148.1M419.296 197.819H394.673M419.296 197.819H443.919M419.296 197.819V222.678M394.673 197.819H370.05M394.673 197.819V222.678M394.673 297.256H419.296M394.673 297.256V322.115M394.673 297.256H370.05M394.673 297.256V272.396M419.296 297.256V322.115M419.296 297.256H443.919M419.296 297.256V272.396M419.296 322.115H394.673M419.296 322.115H443.919M419.296 322.115V346.974M394.673 322.115H370.05M394.673 322.115V346.974M-48.5415 123.241H-23.9184M-48.5415 123.241V148.1M443.919 123.241H468.542M443.919 123.241V148.1M-48.5415 172.959V197.819M-48.5415 172.959H-23.9184M-48.5415 172.959V148.1M-48.5415 197.819H-23.9184M-48.5415 197.819V222.678M-48.5415 297.256V322.115M-48.5415 297.256H-23.9184M-48.5415 297.256V272.396M-48.5415 322.115H-23.9184M-48.5415 322.115V346.974M443.919 172.959V197.819M443.919 172.959H468.542M443.919 172.959V148.1M443.919 197.819H468.542M443.919 197.819V222.678M443.919 297.256V322.115M443.919 297.256H468.542M443.919 297.256V272.396M443.919 322.115H468.542M443.919 322.115V346.974M-23.9184 123.241H0.70461M-23.9184 123.241V148.1M468.542 123.241H493.165M468.542 123.241V148.1M-23.9184 172.959V197.819M-23.9184 172.959H0.70461M-23.9184 172.959V148.1M-23.9184 197.819H0.70461M-23.9184 197.819V222.678M-23.9184 297.256V322.115M-23.9184 297.256H0.70461M-23.9184 297.256V272.396M-23.9184 322.115H0.70461M-23.9184 322.115V346.974M468.542 172.959V197.819M468.542 172.959H493.165M468.542 172.959V148.1M468.542 197.819H493.165M468.542 197.819V222.678M468.542 297.256V322.115M468.542 297.256H493.165M468.542 297.256V272.396M468.542 322.115H493.165M468.542 322.115V346.974M0.70461 123.241H25.3277M0.70461 123.241V148.1M493.165 123.241H517.788M493.165 123.241V148.1M0.70461 172.959V197.819M0.70461 172.959H25.3277M0.70461 172.959V148.1M0.70461 197.819H25.3277M0.70461 197.819V222.678M0.70461 297.256V322.115M0.70461 297.256H25.3277M0.70461 297.256V272.396M0.70461 322.115H25.3277M0.70461 322.115V346.974M493.165 172.959V197.819M493.165 172.959H517.788M493.165 172.959V148.1M493.165 197.819H517.788M493.165 197.819V222.678M493.165 297.256V322.115M493.165 297.256H517.788M493.165 297.256V272.396M493.165 322.115H517.788M493.165 322.115V346.974M25.3277 123.241H49.9506M25.3277 123.241V148.1M517.788 123.241V148.1M25.3277 172.959V197.819M25.3277 172.959H49.9506M25.3277 172.959V148.1M25.3277 197.819H49.9506M25.3277 197.819V222.678M25.3277 297.256V322.115M25.3277 297.256H49.9506M25.3277 297.256V272.396M25.3277 322.115H49.9506M25.3277 322.115V346.974M517.788 172.959V197.819M517.788 172.959V148.1M517.788 197.819V222.678M517.788 297.256V322.115M517.788 297.256V272.396M517.788 322.115V346.974M49.9506 123.241H74.5736M49.9506 123.241V148.1M49.9506 172.959V197.819M49.9506 172.959H74.5736M49.9506 172.959V148.1M49.9506 197.819H74.5736M49.9506 197.819V222.678M49.9506 297.256V322.115M49.9506 297.256H74.5736M49.9506 297.256V272.396M49.9506 322.115H74.5736M49.9506 322.115V346.974M74.5736 123.241H99.1967M74.5736 123.241V148.1M74.5736 172.959V197.819M74.5736 172.959H99.1967M74.5736 172.959V148.1M74.5736 197.819H99.1967M74.5736 197.819V222.678M74.5736 297.256V322.115M74.5736 297.256H99.1967M74.5736 297.256V272.396M74.5736 322.115H99.1967M74.5736 322.115V346.974M99.1967 123.241H123.82M99.1967 123.241V148.1M99.1967 172.959V197.819M99.1967 172.959H123.82M99.1967 172.959V148.1M99.1967 197.819H123.82M99.1967 197.819V222.678M99.1967 297.256V322.115M99.1967 297.256H123.82M99.1967 297.256V272.396M99.1967 322.115H123.82M99.1967 322.115V346.974M123.82 123.241H148.443M123.82 123.241V148.1M123.82 172.959V197.819M123.82 172.959H148.443M123.82 172.959V148.1M123.82 197.819H148.443M123.82 197.819V222.678M123.82 297.256V322.115M123.82 297.256H148.443M123.82 297.256V272.396M123.82 322.115H148.443M123.82 322.115V346.974M148.443 123.241H173.066M148.443 123.241V148.1M148.443 172.959V197.819M148.443 172.959H173.066M148.443 172.959V148.1M148.443 197.819H173.066M148.443 197.819V222.678M148.443 297.256V322.115M148.443 297.256H173.066M148.443 297.256V272.396M148.443 322.115H173.066M148.443 322.115V346.974M173.066 123.241H197.689M173.066 123.241V148.1M173.066 172.959V197.819M173.066 172.959H197.689M173.066 172.959V148.1M173.066 197.819H197.689M173.066 197.819V222.678M173.066 297.256V322.115M173.066 297.256H197.689M173.066 297.256V272.396M173.066 322.115H197.689M173.066 322.115V346.974M197.689 123.241H222.312M197.689 123.241V148.1M197.689 172.959V197.819M197.689 172.959H222.312M197.689 172.959V148.1M197.689 197.819H222.312M197.689 197.819V222.678M197.689 297.256V322.115M197.689 297.256H222.312M197.689 297.256V272.396M197.689 322.115H222.312M197.689 322.115V346.974M222.312 123.241H246.935M222.312 123.241V148.1M222.312 172.959V197.819M222.312 172.959H246.935M222.312 172.959V148.1M222.312 197.819H246.935M222.312 197.819V222.678M222.312 297.256V322.115M222.312 297.256H246.935M222.312 297.256V272.396M222.312 322.115H246.935M222.312 322.115V346.974M320.804 123.241H296.181M320.804 123.241H345.427M320.804 123.241V148.1M296.181 123.241H271.558M296.181 123.241V148.1M296.181 172.959H320.804M296.181 172.959V197.819M296.181 172.959H271.558M296.181 172.959V148.1M320.804 172.959V197.819M320.804 172.959H345.427M320.804 172.959V148.1M320.804 197.819H296.181M320.804 197.819H345.427M320.804 197.819V222.678M296.181 197.819H271.558M296.181 197.819V222.678M296.181 297.256H320.804M296.181 297.256V322.115M296.181 297.256H271.558M296.181 297.256V272.396M320.804 297.256V322.115M320.804 297.256H345.427M320.804 297.256V272.396M320.804 322.115H296.181M320.804 322.115H345.427M320.804 322.115V346.974M296.181 322.115H271.558M296.181 322.115V346.974M246.935 123.241H271.558M246.935 123.241V148.1M246.935 172.959V197.819M246.935 172.959H271.558M246.935 172.959V148.1M246.935 197.819H271.558M246.935 197.819V222.678M246.935 297.256V322.115M246.935 297.256H271.558M246.935 297.256V272.396M246.935 322.115H271.558M246.935 322.115V346.974M345.427 123.241H370.05M345.427 123.241V148.1M345.427 172.959V197.819M345.427 172.959H370.05M345.427 172.959V148.1M345.427 197.819H370.05M345.427 197.819V222.678M345.427 297.256V322.115M345.427 297.256H370.05M345.427 297.256V272.396M345.427 322.115H370.05M345.427 322.115V346.974M271.558 123.241V148.1M271.558 172.959V197.819M271.558 172.959V148.1M271.558 197.819V222.678M271.558 297.256V322.115M271.558 297.256V272.396M271.558 322.115V346.974M370.05 123.241V148.1M370.05 172.959V197.819M370.05 172.959V148.1M370.05 197.819V222.678M370.05 297.256V322.115M370.05 297.256V272.396M370.05 322.115V346.974M-73.1646 23.804H-97.7876M-73.1646 23.804H-48.5415M419.296 23.804H394.673M419.296 23.804H443.919M394.673 23.804H370.05M-48.5415 23.804H-23.9184M443.919 23.804H468.542M-23.9184 23.804H0.70461M468.542 23.804H493.165M0.70461 23.804H25.3277M493.165 23.804H517.788M25.3277 23.804H49.9506M49.9506 23.804H74.5736M74.5736 23.804H99.1967M99.1967 23.804H123.82M123.82 23.804H148.443M148.443 23.804H173.066M173.066 23.804H197.689M197.689 23.804H222.312M222.312 23.804H246.935M320.804 23.804H296.181M320.804 23.804H345.427M296.181 23.804H271.558M246.935 23.804H271.558M345.427 23.804H370.05M-73.1646 148.1H-97.7876M-73.1646 148.1H-48.5415M-97.7876 247.537H-73.1646M-97.7876 247.537V272.396M-97.7876 247.537V222.678M-73.1646 247.537V272.396M-73.1646 247.537H-48.5415M-73.1646 247.537V222.678M-73.1646 272.396H-97.7876M-73.1646 272.396H-48.5415M419.296 148.1H394.673M419.296 148.1H443.919M394.673 148.1H370.05M394.673 247.537H419.296M394.673 247.537V272.396M394.673 247.537H370.05M394.673 247.537V222.678M419.296 247.537V272.396M419.296 247.537H443.919M419.296 247.537V222.678M419.296 272.396H394.673M419.296 272.396H443.919M394.673 272.396H370.05M-73.1646 222.678H-97.7876M-73.1646 222.678H-48.5415M-73.1646 346.974H-97.7876M-73.1646 346.974H-48.5415M-73.1646 346.974V371.833M-97.7876 346.974V371.833H-73.1646M419.296 222.678H394.673M419.296 222.678H443.919M394.673 222.678H370.05M419.296 346.974H394.673M419.296 346.974H443.919M419.296 346.974V371.833M394.673 346.974H370.05M394.673 346.974V371.833M-48.5415 148.1H-23.9184M-48.5415 247.537V272.396M-48.5415 247.537H-23.9184M-48.5415 247.537V222.678M-48.5415 272.396H-23.9184M443.919 148.1H468.542M443.919 247.537V272.396M443.919 247.537H468.542M443.919 247.537V222.678M443.919 272.396H468.542M-48.5415 222.678H-23.9184M-48.5415 346.974H-23.9184M-48.5415 346.974V371.833M443.919 222.678H468.542M443.919 346.974H468.542M443.919 346.974V371.833M-23.9184 148.1H0.70461M-23.9184 247.537V272.396M-23.9184 247.537H0.70461M-23.9184 247.537V222.678M-23.9184 272.396H0.70461M468.542 148.1H493.165M468.542 247.537V272.396M468.542 247.537H493.165M468.542 247.537V222.678M468.542 272.396H493.165M-23.9184 222.678H0.70461M-23.9184 346.974H0.70461M-23.9184 346.974V371.833M468.542 222.678H493.165M468.542 346.974H493.165M468.542 346.974V371.833M0.70461 148.1H25.3277M0.70461 247.537V272.396M0.70461 247.537H25.3277M0.70461 247.537V222.678M0.70461 272.396H25.3277M493.165 148.1H517.788M493.165 247.537V272.396M493.165 247.537H517.788M493.165 247.537V222.678M493.165 272.396H517.788M0.70461 222.678H25.3277M0.70461 346.974H25.3277M0.70461 346.974V371.833M493.165 222.678H517.788M493.165 346.974H517.788M493.165 346.974V371.833M25.3277 148.1H49.9506M25.3277 247.537V272.396M25.3277 247.537H49.9506M25.3277 247.537V222.678M25.3277 272.396H49.9506M517.788 247.537V272.396M517.788 247.537V222.678M25.3277 222.678H49.9506M25.3277 346.974H49.9506M25.3277 346.974V371.833M517.788 346.974V371.833H493.165M49.9506 148.1H74.5736M49.9506 247.537V272.396M49.9506 247.537H74.5736M49.9506 247.537V222.678M49.9506 272.396H74.5736M49.9506 222.678H74.5736M49.9506 346.974H74.5736M49.9506 346.974V371.833M74.5736 148.1H99.1967M74.5736 247.537V272.396M74.5736 247.537H99.1967M74.5736 247.537V222.678M74.5736 272.396H99.1967M74.5736 222.678H99.1967M74.5736 346.974H99.1967M74.5736 346.974V371.833M99.1967 148.1H123.82M99.1967 247.537V272.396M99.1967 247.537H123.82M99.1967 247.537V222.678M99.1967 272.396H123.82M99.1967 222.678H123.82M99.1967 346.974H123.82M99.1967 346.974V371.833M123.82 148.1H148.443M123.82 247.537V272.396M123.82 247.537H148.443M123.82 247.537V222.678M123.82 272.396H148.443M123.82 222.678H148.443M123.82 346.974H148.443M123.82 346.974V371.833M148.443 148.1H173.066M148.443 247.537V272.396M148.443 247.537H173.066M148.443 247.537V222.678M148.443 272.396H173.066M148.443 222.678H173.066M148.443 346.974H173.066M148.443 346.974V371.833M173.066 148.1H197.689M173.066 247.537V272.396M173.066 247.537H197.689M173.066 247.537V222.678M173.066 272.396H197.689M173.066 222.678H197.689M173.066 346.974H197.689M173.066 346.974V371.833M197.689 148.1H222.312M197.689 247.537V272.396M197.689 247.537H222.312M197.689 247.537V222.678M197.689 272.396H222.312M197.689 222.678H222.312M197.689 346.974H222.312M197.689 346.974V371.833M222.312 148.1H246.935M222.312 247.537V272.396M222.312 247.537H246.935M222.312 247.537V222.678M222.312 272.396H246.935M222.312 222.678H246.935M222.312 346.974H246.935M222.312 346.974V371.833M320.804 148.1H296.181M320.804 148.1H345.427M296.181 148.1H271.558M296.181 247.537H320.804M296.181 247.537V272.396M296.181 247.537H271.558M296.181 247.537V222.678M320.804 247.537V272.396M320.804 247.537H345.427M320.804 247.537V222.678M320.804 272.396H296.181M320.804 272.396H345.427M296.181 272.396H271.558M320.804 222.678H296.181M320.804 222.678H345.427M296.181 222.678H271.558M320.804 346.974H296.181M320.804 346.974H345.427M320.804 346.974V371.833M296.181 346.974H271.558M296.181 346.974V371.833M246.935 148.1H271.558M246.935 247.537V272.396M246.935 247.537H271.558M246.935 247.537V222.678M246.935 272.396H271.558M246.935 222.678H271.558M246.935 346.974H271.558M246.935 346.974V371.833M345.427 148.1H370.05M345.427 247.537V272.396M345.427 247.537H370.05M345.427 247.537V222.678M345.427 272.396H370.05M345.427 222.678H370.05M345.427 346.974H370.05M345.427 346.974V371.833M271.558 247.537V272.396M271.558 247.537V222.678M271.558 346.974V371.833M370.05 247.537V272.396M370.05 247.537V222.678M370.05 346.974V371.833M-73.1646 371.833H-48.5415M419.296 371.833H394.673M419.296 371.833H443.919M394.673 371.833H370.05M-48.5415 371.833H-23.9184M443.919 371.833H468.542M-23.9184 371.833H0.70461M468.542 371.833H493.165M0.70461 371.833H25.3277M25.3277 371.833H49.9506M49.9506 371.833H74.5736M74.5736 371.833H99.1967M99.1967 371.833H123.82M123.82 371.833H148.443M148.443 371.833H173.066M173.066 371.833H197.689M197.689 371.833H222.312M222.312 371.833H246.935M320.804 371.833H296.181M320.804 371.833H345.427M296.181 371.833H271.558M246.935 371.833H271.558M345.427 371.833H370.05" stroke="#EBEBEB"/>
</g>
<defs>
<radialGradient id="paint0_radial_33_13671" cx="0" cy="0" r="1" gradientUnits="userSpaceOnUse" gradientTransform="translate(210 140) rotate(90) scale(140 210)">
<stop offset="0.205" stop-color="#D9D9D9"/>
<stop offset="1" stop-color="#D9D9D9" stop-opacity="0"/>
</radialGradient>
</defs>
</svg>
