<svg width="104" height="128" viewBox="0 0 104 128" fill="none" xmlns="http://www.w3.org/2000/svg">
<path fill-rule="evenodd" clip-rule="evenodd" d="M79.6855 52.2366C79.8926 50.6917 80 49.1099 80 47.5C80 30.103 67.464 16 52 16C36.536 16 24 30.103 24 47.5C24 49.1113 24.1075 50.6943 24.315 52.2405C22.2423 54.1941 21.2817 57.1947 22.0706 60.1387L23.1058 64.0024C23.848 66.7724 25.9564 68.8114 28.5118 69.5888C29.6734 76.3931 32.7426 82.3348 37 86.5298V89.8576C37 92.083 37 93.1956 36.6535 94.1705C36.3471 95.0323 35.8478 95.8127 35.1937 96.452C34.4538 97.1752 33.4435 97.6414 31.4231 98.574L31.423 98.574L10.7114 108.133C6.28993 110.174 4.07918 111.194 2.42828 112.741C0.724941 114.337 -0.55239 116.333 -1.28751 118.548C-2 120.695 -2 123.13 -2 128H106C106 123.13 106 120.695 105.288 118.548C104.552 116.333 103.275 114.337 101.572 112.741C99.9208 111.194 97.7101 110.174 93.2886 108.133L72.577 98.574L72.5769 98.574C70.5565 97.6414 69.5462 97.1752 68.8063 96.452C68.1522 95.8127 67.6528 95.0323 67.3465 94.1705C67 93.1956 67 92.083 67 89.8576V86.5298C71.2571 82.3351 74.3262 76.3939 75.488 69.5903C78.0455 68.814 80.1561 66.7741 80.8988 64.0024L81.9341 60.1387C82.7234 57.1927 81.7611 54.1901 79.6855 52.2366Z" fill="url(#paint0_linear_108_57)"/>
<defs>
<linearGradient id="paint0_linear_108_57" x1="52" y1="16" x2="52" y2="128" gradientUnits="userSpaceOnUse">
<stop stop-opacity="0.5"/>
<stop offset="1" stop-color="#666666" stop-opacity="0.1"/>
</linearGradient>
</defs>
</svg>
